<?xml version="1.0" encoding="UTF-8"?>
<svg id="_Слой_1" data-name="Слой_1" xmlns="http://www.w3.org/2000/svg" version="1.1" viewBox="0 0 175.9 55.8">
  <!-- Generator: Adobe Illustrator 29.3.1, SVG Export Plug-In . SVG Version: 2.1.0 Build 151)  -->
  <defs>
    <style>
      .st0 {
        fill: #00509d;
      }
    </style>
  </defs>
  <path class="st0" d="M124.2,13.2c-7.4,0-13.5,6.1-13.5,13.5v4.6c0,7.4,6.1,13.5,13.5,13.5h1.2c7.4,0,13.5-6.1,13.5-13.5v-4.5c0-7.4-6.1-13.5-13.5-13.5h-1.2ZM130.3,25.8v6.9c0,3.1-2.6,5.7-5.7,5.7s-5.7-2.6-5.7-5.7v-6.9c0-3.1,2.6-5.7,5.7-5.7s5.7,2.6,5.7,5.7Z"/>
  <path class="st0" d="M175.9,44.2V14h-14.2c-7.7,0-14.4,6.3-14.1,14.1l.7,16.2h8.4l-.8-17.8c0-3.1,2.6-5.7,5.7-5.7h5.7v23.5h8.6Z"/>
  <path class="st0" d="M101.9,44.2V14h-28.2v30.2h8.4v-23.5h11.4v23.5h8.4Z"/>
  <path class="st0" d="M38.1,35.8v8.4h3.8c13.9,0,23.1-12.1,23.1-23.2v-7.1h-8.4v6.7c0,2.4-.8,5.5-1.9,7.2-5-2.8-8.6-8.1-9.3-14h-8.8c1.1,8.1,4.9,14.9,11.9,20.1-1.4.8-3.9,1.8-6.9,1.8h-3.5Z"/>
  <path class="st0" d="M0,14v30.2h8.4v-13.5h4.2c3.1,3.5,5.5,7.9,7.1,13.5h8.7c-1-5.5-3.3-11.3-8.4-17.9,3.8-2.9,6.8-7,8.1-12.4h-8.8c-2.1,4.8-5.9,7.6-10.7,8.3v-8.3H0Z"/>
  <path class="st0" d="M108,0h-3.3v55.8h3.3V0Z"/>
  <path class="st0" d="M144.9,0h-3.3v55.8h3.3V0Z"/>
  <path class="st0" d="M71,0h-3.3v55.8h3.3V0Z"/>
  <path class="st0" d="M34,0h-3.3v55.8h3.3V0Z"/>
</svg>